<svg xmlns="http://www.w3.org/2000/svg" width="1089" height="118" fill="none" viewBox="0 0 1089 118">
    <path fill="url(#paint0_linear)" d="M89.731 47.252l-.5.008v.003l.5-.011zm0 26.056l-.5-.01v.002l.5.008zm-3.628 18.8l.461.194.001-.003-.462-.19zm-24.077 22.924l.166.471.008-.003-.175-.468zM61.2 5.693l-.172.47.011.004.16-.474zm15.007 8.74l-.339.369.34-.368zm9.73 14.183l-.462.19.004.012.458-.202zm-11.874 19.46h.5v-.014l-.5.014zm-1.979-11.379l-.48.141.003.009.003.008.474-.158zm-5.442-9.895l.375-.33-.375.33zm-9.895-6.761l-.198.459.01.004.188-.463zM15.85 17.402v-.5h-.5v.5h.5zm0 85.756h-.5v.5h.5v-.5zm41.558-2.474l.192.462.006-.003-.198-.459zm9.73-6.926l.381.323-.381-.323zm5.112-9.73l-.48-.142-.002.01.482.132zm1.814-11.544l.5.014v-.014h-.5zm0-6.432l-.499-.028v.028h.5zm0-11.214h-.5v.014l.001.015.5-.03zm15.167-7.575c.11 4.945.165 9.284.165 13.017h1c0-3.743-.055-8.09-.165-13.04l-1 .023zm.165 13.017c0 3.733-.055 8.072-.165 13.017l1 .022c.11-4.95.165-9.296.165-13.039h-1zm-.165 13.02c-.109 6.873-1.309 13.077-3.59 18.618l.924.38c2.336-5.672 3.555-12.002 3.666-18.982l-1-.016zm-3.589 18.615c-2.284 5.437-5.433 10.051-9.448 13.848l.688.726c4.121-3.898 7.348-8.63 9.682-14.187l-.922-.387zm-9.448 13.848c-4.016 3.799-8.794 6.733-14.343 8.8l.35.937c5.665-2.111 10.56-5.113 14.68-9.011l-.687-.726zM61.86 114.56c-5.546 1.958-11.7 2.94-18.469 2.94v1c6.865 0 13.134-.997 18.802-2.997l-.333-.943zM43.39 117.5H4.635v1H43.39v-1zm-38.755 0c-1.072 0-1.99-.384-2.78-1.173l-.707.707c.97.971 2.141 1.466 3.487 1.466v-1zm-2.78-1.173c-.788-.789-1.172-1.707-1.172-2.78h-1c0 1.346.495 2.517 1.465 3.487l.708-.707zm-1.172-2.78V7.013h-1v106.534h1zm0-106.534c0-1.073.384-1.991 1.172-2.78l-.707-.707c-.97.97-1.465 2.14-1.465 3.487h1zm1.172-2.78c.79-.789 1.708-1.173 2.78-1.173v-1c-1.346 0-2.516.495-3.487 1.466l.708.707zm2.78-1.173h37.766v-1H4.635v1zm37.766 0c6.765 0 12.972 1.036 18.628 3.103l.343-.94C55.595 3.114 49.27 2.06 42.401 2.06v1zm18.64 3.107c5.766 1.958 10.706 4.838 14.828 8.635l.678-.736c-4.233-3.899-9.298-6.847-15.185-8.846l-.322.947zm14.828 8.635c4.121 3.795 7.324 8.46 9.607 14.005l.924-.38c-2.334-5.67-5.618-10.46-9.853-14.361l-.678.736zm9.611 14.016c2.388 5.427 3.642 11.572 3.751 18.442l1-.016c-.11-6.983-1.386-13.262-3.835-18.829l-.916.403zM74.564 48.062c-.111-4.005-.779-7.847-2.004-11.523l-.95.316c1.194 3.58 1.846 7.325 1.954 11.235l1-.028zm-2-11.506c-1.119-3.807-2.968-7.17-5.546-10.085l-.75.663c2.48 2.802 4.258 6.035 5.338 9.704l.959-.282zm-5.546-10.085c-2.588-2.924-5.953-5.22-10.082-6.893l-.376.926c4.008 1.625 7.238 3.837 9.709 6.63l.749-.663zm-10.071-6.889c-4.148-1.794-9.223-2.68-15.206-2.68v1c5.89 0 10.821.873 14.809 2.598l.397-.918zm-15.206-2.68H15.849v1h25.892v-1zm-26.392.5v85.756h1V17.402h-1zm.5 86.256h26.717v-1H15.849v1zm26.717 0c5.979 0 10.997-.83 15.034-2.512l-.384-.924c-3.879 1.616-8.756 2.436-14.65 2.436v1zm15.04-2.515c4.126-1.784 7.437-4.135 9.913-7.062l-.763-.646c-2.36 2.79-5.537 5.056-9.547 6.79l.397.918zm9.913-7.062c2.467-2.915 4.205-6.224 5.214-9.922l-.965-.263c-.97 3.558-2.64 6.736-5.012 9.539l.763.646zm5.21-9.912c1.113-3.78 1.724-7.671 1.835-11.671l-1-.028c-.108 3.915-.706 7.72-1.793 11.417l.959.282zm1.835-11.685v-.014-.015-.014-.014-.014-.014-.014-.014-.015-.014-.014-.014-.014-.014-.014-.014-.014-.014-.014-.014-.015-.014-.014-.014-.014-.014-.014-.014-.014-.014-.014-.014-.014-.014-.013-.014-.014-.014-.014-.014-.014-.014-.014-.014-.014-.014-.013-.014-.014-.014-.014-.014-.014-.013-.014-.014-.014-.014-.014-.013-.014-.014-.014-.013-.014-.014-.014-.014-.013-.014-.014-.013-.014-.014-.014-.013-.014-.014-.013-.014-.014-.013-.014-.014-.013-.014-.013-.014-.014-.013-.014-.014-.013-.014-.013-.014-.014-.013-.014-.013-.014-.013-.014-.013-.014-.013-.014-.013-.014-.013-.014-.013-.014-.013-.014-.013-.013-.014-.013-.014-.013-.014-.013-.013-.014-.013-.014-.013-.013-.014-.013-.013-.014-.013-.013-.014-.013-.013-.013-.014-.013-.013-.014-.013-.013-.014-.013-.013-.013-.013-.014-.013-.013-.013-.014-.013-.013-.013-.013-.013-.014-.013-.013-.013-.013-.013-.013-.013-.014-.013-.013-.013-.013-.013-.013-.013-.013-.013-.013-.014-.013-.013-.012-.014-.013-.013-.013-.013-.013-.013-.013-.013-.012-.013-.013-.013-.013-.013-.013-.013-.013-.013-.013-.013-.013-.012-.013-.013-.013-.013-.013-.012-.013-.013-.013-.013-.013-.012-.013-.013-.013-.013-.012-.013-.013-.013-.012-.013-.013-.013-.012-.013-.013-.012-.013-.013-.012-.013-.013-.013-.012-.013-.013-.012-.013-.012-.013-.013-.012-.013-.012-.013-.013-.012-.013-.012-.013-.012-.013-.013V69v-.013-.012-.013-.012-.013-.012-.013-.012-.013-.012-.012-.013-.012-.013-.012-.013-.012-.013-.012-.012-.013-.012-.013-.012-.012-.013-.012-.012-.013-.012-.013-.012-.012-.012-.013-.012-.012-.013-.012-.012-.013-.012-.012-.012-.012-.013-.012-.012-.013-.012-.012-.012-.012-.012-.013-.012-.012-.012-.012-.013-.012-.012-.012-.012-.012-.012-.013-.012-.012-.012-.012-.012-.012-.012-.012-.012-.012-.012-.012-.012-.012-.012-.012-.012-.012-.012-.012-.012-.012-.012-.012-.012-.012-.012-.012-.012-.012-.012-.012-.012-.011-.012-.012-.012-.012-.012-.012-.012-.011-.012-.012-.012-.012-.012-.011-.012-.012-.012-.012-.011-.012-.012-.012-.011-.012-.012-.012-.011-.012-.012-.011-.012-.012-.012-.011-.012-.012-.011-.012-.012-.011-.012-.012-.011-.012-.011-.012-.012-.011-.012-.011-.012-.012-.011-.012-.011-.012-.011-.012-.011-.012-.011-.012-.011-.012-.011-.012-.011-.012-.011-.012-.011-.012-.011-.011-.012-.011-.012-.011-.012-.011-.011-.012-.011-.011-.012-.011-.012-.01-.012-.012-.01-.012-.012-.01-.012-.011-.012-.011-.011-.012-.01-.012-.011-.012-.01-.012-.011-.011-.012-.01-.012-.011-.011-.012-.01-.012-.011-.011-.012-.01-.012-.01-.012-.011-.011-.011-.011-.012-.01-.012-.01-.012-.01-.012-.011-.011-.011-.011-.011-.011-.011-.011-.011-.011-.011-.011-.011-.011-.011-.011h-1V72.484h1zm0-6.404c.11-1.987.165-3.866.165-5.635h-1c0 1.749-.055 3.608-.164 5.58l.999.055zm.165-5.635c0-1.879-.055-3.758-.166-5.636l-.998.058c.11 1.86.164 3.719.164 5.578h1zm-.165-5.607v-.012-.011-.012-.012-.011-.012-.011-.012-.012-.011-.012-.012-.011-.012-.012-.011-.012-.012-.012-.011-.012-.012-.012-.011-.012-.012-.011-.012-.012-.012-.012-.011-.012-.012-.012-.012-.011-.012-.012-.012-.012-.012-.012-.011-.012-.012-.012-.012-.012-.012-.012-.012-.012-.011-.012-.012-.012-.012-.012-.012-.012-.012-.012-.012-.012-.012-.012-.012-.012-.012-.012-.012-.012-.013-.012-.012-.012-.012-.012-.012-.012-.012-.012-.012-.012-.013-.012-.012-.012-.012-.012-.013-.012-.012-.012-.012-.012-.013-.012-.012-.012-.013-.012-.012-.012-.013-.012-.012-.013-.012-.012-.012-.013-.012-.012-.013-.012-.012-.013-.012-.012-.013-.012-.012-.013-.012-.012-.013-.012-.013-.012-.013-.012-.013-.012-.012-.013-.012-.013-.012-.013-.012-.013-.012-.013-.012-.013-.012-.013-.012-.013-.012-.013-.013-.012-.013-.012-.013-.012-.013-.013-.012-.013-.012-.013-.013-.012-.013-.013-.012-.013-.013-.012-.013-.013-.012-.013-.013-.013-.012-.013-.013-.012-.013-.013-.013-.013-.012-.013-.013-.013-.013-.012-.013-.013-.013-.013-.012-.013-.013-.013-.013-.013-.013-.012-.013-.013-.013-.013-.013-.013-.013-.013-.013-.013-.013-.013-.013-.012-.013-.013-.013-.013-.013-.013-.013-.014-.012-.014-.013-.013-.013-.013-.013-.013-.013-.013-.013-.013-.013-.013-.014-.013-.013-.013-.013-.013-.013-.014-.013-.013-.013-.013-.013-.014-.013-.013-.013-.013-.014-.013-.013-.013-.014-.013-.013-.013-.014-.013-.013-.014-.013-.013-.014-.013-.013-.014-.013-.013-.014-.013-.013-.014-.013-.013-.014-.013-.014-.013-.013-.014-.013-.014-.013-.014-.013-.014-.013-.014-.013-.013-.014-.013-.014-.013-.014-.014-.013-.014-.013-.014-.013-.014-.013-.014-.014-.013-.014-.013-.014-.014-.013-.014-.013-.014-.014-.013-.014-.014-.013-.014-.014-.013-.014-.014-.013-.014-.014-.014-.013-.014-.014-.014-.013-.014-.014-.014-.013-.014-.014-.014-.014-.013-.014-.014-.014-.014-.014-.013-.014-.014-.014-.014-.014-.014-.014-.013-.014-.014-.014-.014-.014-.014-.014-.014-.014-.014-.014-.014-.014-.014-.014-.014-.014-.014-.014-.014-.014-.014-.014-.014-.014-.014-.014-.014-.014-.014-.014-.015-.014-.014-.014-.014-.014-.014-.014-.015-.014-.014-.014-.014-.014-.015-.014-.014-.014-.014-.015-.014-.014-.014-.015-.014-.014-.014-.015-.014-.014-.015-.014-.014-.014-.015-.014-.014-.015-.014-.014-.015-.014-.015-.014-.014-.015-.014-.014-.015-.014-.015-.014-.015-.014-.014-.015-.014-.015-.014-.015-.014-.015-.014-.015-.014-.015-.014-.015-.014-.015-.014-.015-.014-.015-.015-.014-.015-.014-.015-.014-.015-.015-.014-.015-.015-.014-.015-.015-.014-.015-.014-.015-.015-.015-.014-.015-.015-.014-.015-.015-.015-.014-.015-.015-.015-.014-.015-.015-.015-.014-.015-.015-.015-.015h-1V54.838h1zm61.752 62.662c-1.073 0-1.992-.384-2.78-1.173l-.707.707c.97.971 2.14 1.466 3.487 1.466v-1zm-2.78-1.173c-.789-.789-1.173-1.707-1.173-2.78h-1c0 1.346.495 2.517 1.466 3.487l.707-.707zm-1.173-2.78V7.013h-1v106.534h1zm0-106.534c0-1.073.384-1.991 1.173-2.78l-.707-.707c-.971.97-1.466 2.14-1.466 3.487h1zm1.173-2.78c.788-.789 1.707-1.173 2.78-1.173v-1c-1.347 0-2.517.495-3.487 1.466l.707.707zm2.78-1.173h6.761v-1h-6.761v1zm6.761 0c1.073 0 1.991.384 2.78 1.173l.707-.707c-.97-.97-2.141-1.466-3.487-1.466v1zm2.78 1.173c.789.789 1.173 1.707 1.173 2.78h1c0-1.346-.496-2.517-1.466-3.487l-.707.707zm1.173 2.78v106.534h1V7.013h-1zm0 106.534c0 1.073-.384 1.991-1.173 2.78l.707.707c.97-.97 1.466-2.141 1.466-3.487h-1zm-1.173 2.78c-.789.789-1.707 1.173-2.78 1.173v1c1.346 0 2.517-.495 3.487-1.466l-.707-.707zm-2.78 1.173h-6.761v1h6.761v-1zM267.027 3.88l.353-.354-.353.353zm0 12.203l.353.354-.353-.354zm-57.39 1.32v-.5h-.5v.5h.5zm0 38.095h-.5v.5h.5v-.5zm54.092 1.319l-.354.353.354-.353zm0 12.203l-.354-.353.354.353zm-54.092 1.32v-.5h-.5v.5h.5zm54.256-67.28c1.073 0 1.992.384 2.78 1.173l.707-.707c-.97-.97-2.14-1.466-3.487-1.466v1zm2.78 1.173c.789.789 1.173 1.707 1.173 2.78h1c0-1.346-.495-2.517-1.466-3.487l-.707.707zm1.173 2.78v5.937h1V7.013h-1zm0 5.937c0 1.072-.384 1.99-1.173 2.78l.707.706c.971-.97 1.466-2.14 1.466-3.486h-1zm-1.173 2.78c-.788.788-1.707 1.172-2.78 1.172v1c1.347 0 2.517-.495 3.487-1.466l-.707-.707zm-2.78 1.172h-54.256v1h54.256v-1zm-54.756.5v38.096h1V17.402h-1zm.5 38.596h50.958v-1h-50.958v1zm50.958 0c1.073 0 1.991.384 2.78 1.172l.707-.707c-.97-.97-2.141-1.465-3.487-1.465v1zm2.78 1.172c.789.79 1.173 1.708 1.173 2.78h1c0-1.346-.496-2.516-1.466-3.487l-.707.707zm1.173 2.78v5.937h1V59.95h-1zm0 5.937c0 1.073-.384 1.991-1.173 2.78l.707.707c.97-.97 1.466-2.14 1.466-3.487h-1zm-1.173 2.78c-.789.789-1.707 1.173-2.78 1.173v1c1.346 0 2.517-.496 3.487-1.466l-.707-.707zm-2.78 1.173h-50.958v1h50.958v-1zm-51.458.5v43.207h1V70.34h-1zm0 43.207c0 1.073-.384 1.991-1.173 2.78l.707.707c.97-.97 1.466-2.141 1.466-3.487h-1zm-1.173 2.78c-.789.789-1.707 1.173-2.78 1.173v1c1.346 0 2.517-.495 3.487-1.466l-.707-.707zm-2.78 1.173h-6.762v1h6.762v-1zm-6.762 0c-1.072 0-1.991-.384-2.779-1.173l-.707.707c.97.971 2.14 1.466 3.486 1.466v-1zm-2.779-1.173c-.789-.789-1.173-1.707-1.173-2.78h-1c0 1.346.495 2.517 1.466 3.487l.707-.707zm-1.173-2.78V7.013h-1v106.534h1zm0-106.534c0-1.073.384-1.991 1.173-2.78l-.707-.707c-.971.97-1.466 2.14-1.466 3.487h1zm1.173-2.78c.788-.789 1.707-1.173 2.779-1.173v-1c-1.346 0-2.516.495-3.486 1.466l.707.707zm2.779-1.173h65.471v-1h-65.471v1zm181.925.82l.354-.354-.354.353zm0 12.203l.354.354-.354-.354zm-57.39 1.32v-.5h-.5v.5h.5zm0 38.095h-.5v.5h.5v-.5zm54.092 1.319l-.353.353.353-.353zm0 12.203l-.353-.353.353.353zm-54.092 1.32v-.5h-.5v.5h.5zm54.257-67.28c1.073 0 1.991.384 2.78 1.173l.707-.707c-.97-.97-2.141-1.466-3.487-1.466v1zm2.78 1.173c.789.789 1.173 1.707 1.173 2.78h1c0-1.346-.496-2.517-1.466-3.487l-.707.707zm1.173 2.78v5.937h1V7.013h-1zm0 5.937c0 1.072-.384 1.99-1.173 2.78l.707.706c.97-.97 1.466-2.14 1.466-3.486h-1zm-1.173 2.78c-.789.788-1.707 1.172-2.78 1.172v1c1.346 0 2.517-.495 3.487-1.466l-.707-.707zm-2.78 1.172h-54.257v1h54.257v-1zm-54.757.5v38.096h1V17.402h-1zm.5 38.596h50.959v-1h-50.959v1zm50.959 0c1.072 0 1.991.384 2.78 1.172l.707-.707c-.971-.97-2.141-1.465-3.487-1.465v1zm2.78 1.172c.788.79 1.172 1.708 1.172 2.78h1c0-1.346-.495-2.516-1.465-3.487l-.707.707zm1.172 2.78v5.937h1V59.95h-1zm0 5.937c0 1.073-.384 1.991-1.172 2.78l.707.707c.97-.97 1.465-2.14 1.465-3.487h-1zm-1.172 2.78c-.789.789-1.708 1.173-2.78 1.173v1c1.346 0 2.516-.496 3.487-1.466l-.707-.707zm-2.78 1.173h-50.959v1h50.959v-1zm-51.459.5v43.207h1V70.34h-1zm0 43.207c0 1.073-.384 1.991-1.173 2.78l.708.707c.97-.97 1.465-2.141 1.465-3.487h-1zm-1.173 2.78c-.788.789-1.707 1.173-2.779 1.173v1c1.346 0 2.516-.495 3.487-1.466l-.708-.707zm-2.779 1.173h-6.762v1h6.762v-1zm-6.762 0c-1.072 0-1.991-.384-2.78-1.173l-.707.707c.971.971 2.141 1.466 3.487 1.466v-1zm-2.78-1.173c-.788-.789-1.173-1.707-1.173-2.78h-1c0 1.346.496 2.517 1.466 3.487l.707-.707zm-1.173-2.78V7.013h-1v106.534h1zm0-106.534c0-1.073.385-1.991 1.173-2.78l-.707-.707c-.97.97-1.466 2.14-1.466 3.487h1zm1.173-2.78c.789-.789 1.708-1.173 2.78-1.173v-1c-1.346 0-2.516.495-3.487 1.466l.707.707zm2.78-1.173h65.471v-1h-65.471v1zm181.76.82l-.353.353.353-.354zm0 12.203l-.353-.354.353.354zm-57.225 1.32v-.5h-.5v.5h.5zm0 34.796h-.5v.5h.5v-.5zm53.597 1.32l.354-.354-.354.354zm0 12.203l.354.354-.354-.354zm-53.597 1.32v-.5h-.5v.5h.5zm0 36.116h-.5v.5h.5v-.5zm55.411.5c1.073 0 1.991.384 2.78 1.173l.707-.708c-.97-.97-2.141-1.465-3.487-1.465v1zm2.78 1.173c.789.788 1.173 1.707 1.173 2.779h1c0-1.346-.496-2.516-1.466-3.487l-.707.708zm1.173 2.779v5.937h1v-5.937h-1zm0 5.937c0 1.073-.384 1.991-1.173 2.78l.707.707c.97-.97 1.466-2.141 1.466-3.487h-1zm-1.173 2.78c-.789.789-1.707 1.173-2.78 1.173v1c1.346 0 2.517-.495 3.487-1.466l-.707-.707zm-2.78 1.173h-66.625v1h66.625v-1zm-66.625 0c-1.073 0-1.991-.384-2.78-1.173l-.707.707c.97.971 2.141 1.466 3.487 1.466v-1zm-2.78-1.173c-.789-.789-1.173-1.707-1.173-2.78h-1c0 1.346.495 2.517 1.466 3.487l.707-.707zm-1.173-2.78V7.013h-1v106.534h1zm0-106.534c0-1.073.384-1.991 1.173-2.78l-.707-.707c-.971.97-1.466 2.14-1.466 3.487h1zm1.173-2.78c.789-.789 1.707-1.173 2.78-1.173v-1c-1.346 0-2.517.495-3.487 1.466l.707.707zm2.78-1.173h65.306v-1h-65.306v1zm65.306 0c1.072 0 1.991.384 2.78 1.173l.707-.707c-.971-.97-2.141-1.466-3.487-1.466v1zm2.78 1.173c.788.789 1.172 1.707 1.172 2.78h1c0-1.346-.495-2.517-1.465-3.487l-.707.707zm1.172 2.78v5.937h1V7.013h-1zm0 5.937c0 1.072-.384 1.99-1.172 2.78l.707.706c.97-.97 1.465-2.14 1.465-3.486h-1zm-1.172 2.78c-.789.788-1.708 1.172-2.78 1.172v1c1.346 0 2.516-.495 3.487-1.466l-.707-.707zm-2.78 1.172h-54.092v1h54.092v-1zm-54.592.5V52.2h1V17.402h-1zm.5 35.297h50.464v-1h-50.464v1zm50.464 0c1.072 0 1.991.384 2.779 1.173l.708-.707c-.971-.97-2.141-1.466-3.487-1.466v1zm2.779 1.173c.789.789 1.173 1.707 1.173 2.78h1c0-1.346-.495-2.517-1.465-3.487l-.708.707zm1.173 2.78v5.937h1v-5.937h-1zm0 5.937c0 1.072-.384 1.99-1.173 2.78l.708.707c.97-.97 1.465-2.141 1.465-3.487h-1zm-1.173 2.78c-.788.788-1.707 1.172-2.779 1.172v1c1.346 0 2.516-.495 3.487-1.465l-.708-.707zm-2.779 1.172h-50.464v1h50.464v-1zm-50.964.5v36.117h1V67.041h-1zm.5 36.617h55.411v-1h-55.411v1zM595.881 4.539l-.134.482h.003l.131-.482zm12.699 6.102l-.302.398.302-.398zm8.575 10.554l-.449.22.004.009.445-.229zm-3.463 36.776l-.38-.325-.004.005.384.32zm-16.986 11.214l-.151-.476-.591.188.308.537.434-.249zm24.902 43.373l.447-.224-.006-.013-.007-.012-.434.249zm-.66 4.453l.354.353-.354-.353zm-14.512-.66l-.372.334.009.01.009.009.354-.353zm-2.144-2.804l-.435.247.001.001.434-.248zm-23.913-42.053l.435-.247-.144-.253h-.291v.5zm-28.365 0v-.5h-.5v.5h.5zm0-14.842h-.5v.5h.5v-.5zm46.176-4.618l.292.406h.002l-.294-.406zm0-30.179l-.284.411.006.004.006.004.272-.419zm-46.176-4.453v-.5h-.5v.5h.5zM580.709 3.06c5.346 0 10.358.655 15.038 1.96l.269-.963c-4.776-1.332-9.878-1.997-15.307-1.997v1zm15.041 1.961c4.782 1.305 8.956 3.312 12.528 6.018l.604-.797c-3.684-2.79-7.976-4.851-12.869-6.185l-.263.964zm12.528 6.018c3.562 2.7 6.372 6.155 8.428 10.375l.899-.438c-2.122-4.355-5.03-7.935-8.723-10.734l-.604.797zm8.432 10.385c2.155 4.2 3.244 9.286 3.244 15.273h1c0-6.106-1.111-11.356-3.354-15.73l-.89.457zm3.244 15.273c0 8.821-2.232 15.786-6.642 20.95l.76.649c4.605-5.391 6.882-12.609 6.882-21.599h-1zm-6.646 20.954c-4.333 5.2-9.912 8.886-16.753 11.058l.302.953c7.012-2.226 12.757-6.016 17.219-11.37l-.768-.64zm-17.036 11.783l24.902 43.373.868-.498-24.902-43.373-.868.498zm24.889 43.347c.306.613.442 1.141.442 1.591h1c0-.649-.195-1.331-.548-2.038l-.894.447zm.442 1.591c0 .843-.322 1.599-1.008 2.285l.707.707c.853-.853 1.301-1.856 1.301-2.992h-1zm-1.008 2.285c-.56.56-1.255.843-2.12.843v1c1.113 0 2.067-.376 2.827-1.136l-.707-.707zm-2.12.843h-7.092v1h7.092v-1zm-7.092 0c-2.121 0-3.621-.53-4.594-1.503l-.707.707c1.227 1.227 3.025 1.796 5.301 1.796v-1zm-4.575-1.484c-.98-1.088-1.668-1.992-2.082-2.717l-.868.496c.465.815 1.206 1.779 2.206 2.89l.744-.669zm-2.081-2.716l-23.913-42.053-.869.494 23.912 42.053.87-.494zm-24.348-42.306h-28.365v1h28.365v-1zm-28.865.5v42.053h1V71.494h-1zm0 42.053c0 1.073-.384 1.991-1.173 2.78l.707.707c.971-.97 1.466-2.141 1.466-3.487h-1zm-1.173 2.78c-.788.789-1.707 1.173-2.78 1.173v1c1.347 0 2.517-.495 3.487-1.466l-.707-.707zm-2.78 1.173H540.8v1h6.761v-1zm-6.761 0c-1.073 0-1.991-.384-2.78-1.173l-.707.707c.97.971 2.141 1.466 3.487 1.466v-1zm-2.78-1.173c-.789-.789-1.173-1.707-1.173-2.78h-1c0 1.346.496 2.517 1.466 3.487l.707-.707zm-1.173-2.78V7.013h-1v106.534h1zm0-106.534c0-1.073.384-1.991 1.173-2.78l-.707-.707c-.97.97-1.466 2.14-1.466 3.487h1zm1.173-2.78c.789-.789 1.707-1.173 2.78-1.173v-1c-1.346 0-2.517.495-3.487 1.466l.707.707zm2.78-1.173h39.909v-1H540.8v1zm11.214 54.092h27.871v-1h-27.871v1zm27.871 0c7.971 0 14.191-1.549 18.597-4.712l-.583-.812c-4.17 2.994-10.154 4.524-18.014 4.524v1zm18.599-4.713c4.564-3.31 6.803-8.597 6.803-15.742h-1c0 6.928-2.159 11.865-6.39 14.932l.587.81zm6.803-15.742c0-7.141-2.238-12.28-6.824-15.261l-.545.838c4.209 2.736 6.369 7.492 6.369 14.423h1zm-6.812-15.253c-4.405-3.05-10.622-4.542-18.59-4.542v1c7.863 0 13.849 1.476 18.021 4.364l.569-.822zm-18.59-4.542h-27.871v1h27.871v-1zm-28.371.5v39.25h1v-39.25h-1zM734.8 3.88l-.354.354.354-.354zm0 12.204l-.354-.354.354.354zm-57.225 1.32v-.5h-.5v.5h.5zm0 34.796h-.5v.5h.5v-.5zm53.597 1.32l.353-.354-.353.354zm0 12.203l.353.354-.353-.354zm-53.597 1.32v-.5h-.5v.5h.5zm0 36.116h-.5v.5h.5v-.5zm55.411.5c1.072 0 1.991.384 2.78 1.173l.707-.708c-.971-.97-2.141-1.465-3.487-1.465v1zm2.78 1.173c.788.788 1.172 1.707 1.172 2.779h1c0-1.346-.495-2.516-1.465-3.487l-.707.708zm1.172 2.779v5.937h1v-5.937h-1zm0 5.937c0 1.073-.384 1.991-1.172 2.78l.707.707c.97-.97 1.465-2.141 1.465-3.487h-1zm-1.172 2.78c-.789.789-1.708 1.173-2.78 1.173v1c1.346 0 2.516-.495 3.487-1.466l-.707-.707zm-2.78 1.173H666.36v1h66.626v-1zm-66.626 0c-1.072 0-1.991-.384-2.779-1.173l-.708.707c.971.971 2.141 1.466 3.487 1.466v-1zm-2.779-1.173c-.789-.789-1.173-1.707-1.173-2.78h-1c0 1.346.495 2.517 1.465 3.487l.708-.707zm-1.173-2.78V7.013h-1v106.534h1zm0-106.534c0-1.073.384-1.991 1.173-2.78l-.708-.707c-.97.97-1.465 2.14-1.465 3.487h1zm1.173-2.78c.788-.789 1.707-1.173 2.779-1.173v-1c-1.346 0-2.516.495-3.487 1.466l.708.707zm2.779-1.173h65.306v-1H666.36v1zm65.306 0c1.073 0 1.991.384 2.78 1.173l.707-.707c-.97-.97-2.14-1.466-3.487-1.466v1zm2.78 1.173c.789.789 1.173 1.707 1.173 2.78h1c0-1.346-.495-2.517-1.466-3.487l-.707.707zm1.173 2.78v5.937h1V7.013h-1zm0 5.937c0 1.072-.384 1.99-1.173 2.78l.707.706c.971-.97 1.466-2.14 1.466-3.486h-1zm-1.173 2.78c-.789.788-1.707 1.172-2.78 1.172v1c1.347 0 2.517-.495 3.487-1.466l-.707-.707zm-2.78 1.172h-54.091v1h54.091v-1zm-54.591.5V52.2h1V17.402h-1zm.5 35.297h50.463v-1h-50.463v1zm50.463 0c1.073 0 1.991.384 2.78 1.173l.707-.707c-.97-.97-2.141-1.466-3.487-1.466v1zm2.78 1.173c.789.789 1.173 1.707 1.173 2.78h1c0-1.346-.495-2.517-1.466-3.487l-.707.707zm1.173 2.78v5.937h1v-5.937h-1zm0 5.937c0 1.072-.384 1.99-1.173 2.78l.707.707c.971-.97 1.466-2.141 1.466-3.487h-1zm-1.173 2.78c-.789.788-1.707 1.172-2.78 1.172v1c1.346 0 2.517-.495 3.487-1.465l-.707-.707zm-2.78 1.172h-50.463v1h50.463v-1zm-50.963.5v36.117h1V67.041h-1zm.5 36.617h55.411v-1h-55.411v1zm171.972 12.858l-.372.334.018.02.019.017.335-.371zm-2.639-3.463l.422-.269-.006-.008-.416.277zM793.311 32.41l.416-.277-.916-1.38v1.657h.5zm-1.649-28.2l-.372.334.018.02.019.017.335-.372zm2.803 3.297l-.422.269.006.008.416-.277zm53.597 80.644l-.416.276.916 1.38V88.15h-.5zm5.443 29.349c-1.422 0-2.62-.453-3.624-1.356l-.669.743c1.195 1.076 2.635 1.613 4.293 1.613v-1zm-3.587-1.319c-.971-1.079-1.834-2.212-2.588-3.397l-.844.537c.785 1.233 1.682 2.41 2.689 3.529l.743-.669zm-2.594-3.405l-53.597-80.643-.833.553 53.598 80.643.832-.553zm-54.513-80.367v81.138h1V32.41h-1zm0 81.138c0 1.073-.384 1.991-1.173 2.78l.707.707c.97-.97 1.466-2.141 1.466-3.487h-1zm-1.173 2.78c-.789.789-1.707 1.173-2.78 1.173v1c1.346 0 2.517-.495 3.487-1.466l-.707-.707zm-2.78 1.173h-6.761v1h6.761v-1zm-6.761 0c-1.073 0-1.991-.384-2.78-1.173l-.707.707c.97.971 2.141 1.466 3.487 1.466v-1zm-2.78-1.173c-.789-.789-1.173-1.707-1.173-2.78h-1c0 1.346.495 2.517 1.466 3.487l.707-.707zm-1.173-2.78V7.013h-1v106.534h1zm0-106.534c0-1.073.384-1.991 1.173-2.78l-.707-.707c-.971.97-1.466 2.14-1.466 3.487h1zm1.173-2.78c.789-.789 1.707-1.173 2.78-1.173v-1c-1.346 0-2.517.495-3.487 1.466l.707.707zm2.78-1.173h5.772v-1h-5.772v1zm5.772 0c1.404 0 2.531.494 3.421 1.484l.743-.67c-1.088-1.209-2.49-1.814-4.164-1.814v1zm3.458 1.52c1.067.96 1.972 2.026 2.716 3.196l.844-.537c-.795-1.249-1.759-2.383-2.891-3.402l-.669.744zm2.722 3.204l53.597 80.643.833-.553L794.882 7.23l-.833.553zm54.513 80.366V7.013h-1V88.15h1zm0-81.137c0-1.073.384-1.991 1.173-2.78l-.707-.707c-.97.97-1.466 2.14-1.466 3.487h1zm1.173-2.78c.789-.789 1.708-1.173 2.78-1.173v-1c-1.346 0-2.517.495-3.487 1.466l.707.707zm2.78-1.173h6.762v-1h-6.762v1zm6.762 0c1.072 0 1.991.384 2.779 1.173l.707-.707c-.97-.97-2.14-1.466-3.486-1.466v1zm2.779 1.173c.789.789 1.173 1.707 1.173 2.78h1c0-1.346-.495-2.517-1.466-3.487l-.707.707zm1.173 2.78v106.534h1V7.013h-1zm0 106.534c0 1.073-.384 1.991-1.173 2.78l.707.707c.971-.97 1.466-2.141 1.466-3.487h-1zm-1.173 2.78c-.788.789-1.707 1.173-2.779 1.173v1c1.346 0 2.516-.495 3.486-1.466l-.707-.707zm-2.779 1.173h-5.772v1h5.772v-1zM984.832 3.88l.353-.354-.353.353zm0 12.203l.353.354-.353-.354zm-33.973 1.32v-.5h-.5v.5h.5zm-1.319 99.278l-.353-.354.353.354zm-13.028 0l-.354.353.354-.353zm-1.319-99.279h.5v-.5h-.5v.5zM981.698 3.06c1.073 0 1.991.384 2.78 1.173l.707-.707c-.97-.97-2.14-1.466-3.487-1.466v1zm2.78 1.173c.789.789 1.173 1.707 1.173 2.78h1c0-1.346-.495-2.517-1.466-3.487l-.707.707zm1.173 2.78v5.937h1V7.013h-1zm0 5.937c0 1.072-.384 1.99-1.173 2.78l.707.706c.971-.97 1.466-2.14 1.466-3.486h-1zm-1.173 2.78c-.789.788-1.707 1.172-2.78 1.172v1c1.347 0 2.517-.495 3.487-1.466l-.707-.707zm-2.78 1.172h-30.839v1h30.839v-1zm-31.339.5v96.145h1V17.402h-1zm0 96.145c0 1.073-.384 1.991-1.172 2.78l.707.707c.97-.97 1.465-2.141 1.465-3.487h-1zm-1.172 2.78c-.789.789-1.708 1.173-2.78 1.173v1c1.346 0 2.516-.495 3.487-1.466l-.707-.707zm-2.78 1.173h-6.762v1h6.762v-1zm-6.762 0c-1.072 0-1.991-.384-2.78-1.173l-.707.707c.971.971 2.141 1.466 3.487 1.466v-1zm-2.78-1.173c-.788-.789-1.172-1.707-1.172-2.78h-1c0 1.346.495 2.517 1.465 3.487l.707-.707zm-1.172-2.78V17.402h-1v96.145h1zm-.5-96.645h-30.839v1h30.839v-1zm-30.839 0c-1.073 0-1.992-.384-2.78-1.173l-.707.707c.97.97 2.14 1.466 3.487 1.466v-1zm-2.78-1.173c-.789-.788-1.173-1.707-1.173-2.78h-1c0 1.347.495 2.517 1.466 3.487l.707-.707zm-1.173-2.78V7.014h-1v5.937h1zm0-5.936c0-1.073.384-1.991 1.173-2.78l-.707-.707c-.971.97-1.466 2.14-1.466 3.487h1zm1.173-2.78c.788-.789 1.707-1.173 2.78-1.173v-1c-1.347 0-2.517.495-3.487 1.466l.707.707zm2.78-1.173h77.344v-1h-77.344v1zm154.416 113.621l-.35-.354.35.354zm0-15.667l-.35.353.35-.353zm-45.68-67.945l.49.055.01-.012v-.013l-.5-.03zm2.64-11.05l-.46-.196-.01.006.47.19zm7.09-10.389l-.36-.353.36.353zm11.87-7.75l.19.46-.19-.46zm31.34-.495l-.18.47.01.002.01.002.16-.474zm11.87 6.431l-.32.384v.005l.32-.389zm7.91 9.895l-.45.219.45-.219zm.5 24.078l-.45-.212-.01.007.46.205zm-5.61 8.575l-.37-.337v.009l.37.328zm-7.25 7.091l.31.386.01-.002-.32-.384zm-12.87 14.018l-.43-.244-.01.006.44.238zm-3.46 15.007l.35.354-.35-.354zm-12.37 0l.35-.353-.35.353zm.83-17.975l-.46-.212v.007l.46.205zm5.6-8.74l-.37-.338v.01l.37.327zm7.26-6.927l.32.385v-.001l-.32-.384zm7.26-6.597l.35.354-.35-.354zm5.6-7.256l-.42-.26-.01.007v.007l.43.246zm.33-16.162l-.44.241.01.014.01.012.42-.267zm-4.95-5.442l.29-.412-.29.412zm-7.25-3.298l-.14.48v.001l.14-.481zm-22.92 3.133l-.29-.409.29.41zm-8.42 13.853l-.48-.117v.014l-.01.014.49.09zm-1.64 2.804l.26.424.02-.012.02-.012-.3-.4zm-12.37-.165l-.36.353.02.014.01.012.33-.38zm45.51 77.839c0 1.073-.39 1.991-1.17 2.78l.7.707c.97-.97 1.47-2.141 1.47-3.487h-1zm-1.17 2.78c-.79.789-1.71 1.173-2.78 1.173v1c1.34 0 2.51-.495 3.48-1.466l-.7-.707zm-2.78 1.173h-9.4v1h9.4v-1zm-9.4 0c-1.08 0-2-.384-2.78-1.173l-.71.707c.97.971 2.14 1.466 3.49 1.466v-1zm-2.78-1.173c-.79-.789-1.18-1.707-1.18-2.78h-1c0 1.346.5 2.517 1.47 3.487l.71-.707zm-1.18-2.78v-9.4h-1v9.4h1zm0-9.4c0-1.072.39-1.991 1.18-2.78l-.71-.707c-.97.971-1.47 2.141-1.47 3.487h1zm1.18-2.78c.78-.788 1.7-1.172 2.78-1.172v-1c-1.35 0-2.52.495-3.49 1.465l.71.707zm2.78-1.172h9.4v-1h-9.4v1zm9.4 0c1.07 0 1.99.384 2.78 1.172l.7-.707c-.97-.97-2.14-1.465-3.48-1.465v1zm2.78 1.172c.78.789 1.17 1.708 1.17 2.78h1c0-1.346-.5-2.516-1.47-3.487l-.7.707zm1.17 2.78v9.4h1v-9.4h-1zm-46-71.048c.21-3.567 1.08-7.196 2.6-10.889l-.93-.38c-1.55 3.783-2.45 7.52-2.67 11.209l1 .06zm2.6-10.882c1.62-3.787 3.95-7.198 6.98-10.233l-.71-.707c-3.12 3.121-5.52 6.637-7.19 10.546l.92.394zm6.98-10.233c3.14-3.137 7.04-5.686 11.71-7.643l-.38-.923c-4.78 2-8.8 4.619-12.04 7.859l.71.707zm11.71-7.643c4.66-1.949 10.09-2.93 16.3-2.93v-1c-6.32 0-11.88.998-16.68 3.007l.38.923zm16.3-2.93c5.34 0 10.23.816 14.67 2.443l.35-.939c-4.57-1.672-9.58-2.504-15.02-2.504v1zm14.69 2.448c4.56 1.522 8.46 3.638 11.71 6.341l.64-.768c-3.35-2.793-7.37-4.965-12.04-6.522l-.31.949zm11.71 6.346c3.36 2.704 5.95 5.944 7.78 9.725l.9-.437c-1.9-3.916-4.58-7.272-8.05-10.066l-.63.778zm7.78 9.725c1.84 3.777 2.76 7.825 2.76 12.15h1c0-4.472-.95-8.67-2.86-12.587l-.9.437zm2.76 12.15c0 4.451-.76 8.279-2.26 11.497l.9.423c1.58-3.378 2.36-7.357 2.36-11.92h-1zm-2.27 11.504c-1.4 3.14-3.24 5.954-5.52 8.443l.74.674c2.35-2.569 4.25-5.472 5.7-8.708l-.92-.409zm-5.52 8.452c-2.19 2.508-4.59 4.853-7.2 7.035l.64.769c2.65-2.216 5.09-4.598 7.31-7.148l-.75-.656zm-7.2 7.034c-2.54 2.099-4.97 4.308-7.29 6.628l.7.708c2.3-2.298 4.71-4.486 7.22-6.565l-.63-.771zm-7.29 6.628c-2.24 2.232-4.13 4.743-5.69 7.53l.87.49c1.52-2.71 3.36-5.147 5.52-7.313l-.7-.707zm-5.7 7.537c-1.47 2.728-2.2 6.002-2.2 9.803h1c0-3.675.7-6.777 2.08-9.327l-.88-.476zm-2.2 9.803v2.309h1v-2.309h-1zm0 2.309c0 1.073-.39 1.991-1.17 2.78l.7.707c.97-.97 1.47-2.14 1.47-3.487h-1zm-1.17 2.78c-.79.789-1.71 1.173-2.78 1.173v1c1.34 0 2.51-.496 3.48-1.466l-.7-.707zm-2.78 1.173h-6.11v1h6.11v-1zm-6.11 0c-1.07 0-1.99-.384-2.78-1.173l-.7.707c.97.97 2.14 1.466 3.48 1.466v-1zm-2.78-1.173c-.78-.789-1.17-1.707-1.17-2.78h-1c0 1.346.5 2.517 1.47 3.487l.7-.707zm-1.17-2.78v-3.463h-1v3.463h1zm0-3.463c0-4.345.71-8.065 2.1-11.175l-.91-.409c-1.47 3.267-2.19 7.133-2.19 11.584h1zm2.1-11.168c1.52-3.26 3.36-6.133 5.53-8.624l-.75-.656c-2.24 2.567-4.13 5.52-5.69 8.857l.91.423zm5.52-8.615c2.3-2.512 4.7-4.804 7.21-6.878l-.64-.77c-2.55 2.104-4.98 4.429-7.31 6.974l.74.674zm7.21-6.88c2.65-2.207 5.08-4.416 7.29-6.626l-.71-.707c-2.19 2.187-4.59 4.376-7.22 6.566l.64.768zm7.29-6.626c2.34-2.337 4.23-4.791 5.69-7.364l-.87-.492c-1.41 2.485-3.25 4.868-5.53 7.149l.71.707zm5.68-7.35c1.59-2.618 2.38-5.68 2.38-9.165h-1c0 3.33-.75 6.206-2.23 8.645l.85.52zm2.38-9.165c0-2.832-.68-5.346-2.06-7.524l-.84.534c1.26 2 1.9 4.325 1.9 6.99h1zm-2.04-7.497c-1.25-2.269-2.95-4.141-5.1-5.614l-.57.825c2.03 1.385 3.62 3.14 4.79 5.27l.88-.482zm-5.1-5.614c-2.14-1.464-4.61-2.585-7.41-3.368l-.27.963c2.71.757 5.07 1.835 7.11 3.23l.57-.825zm-7.4-3.366c-2.69-.783-5.48-1.174-8.39-1.174v1c2.82 0 5.52.378 8.11 1.134l.28-.96zm-8.39-1.174c-5.8 0-10.8 1.452-14.96 4.378l.57.818c3.97-2.79 8.76-4.196 14.39-4.196v-1zm-14.96 4.378c-4.2 2.948-7.05 7.688-8.61 14.145l.97.235c1.52-6.297 4.27-10.793 8.21-13.562l-.57-.818zm-8.62 14.173c-.2 1.1-.69 1.918-1.45 2.493l.6.8c.99-.745 1.6-1.797 1.84-3.114l-.99-.18zm-1.42 2.469c-.81.509-1.6.748-2.37.748v1c.99 0 1.96-.31 2.9-.9l-.53-.848zm-2.37.748h-7.09v1h7.09v-1zm-7.09 0c-.87 0-1.64-.285-2.32-.869l-.65.76c.86.735 1.85 1.11 2.97 1.11v-1zm-2.29-.843c-.67-.673-.94-1.407-.85-2.23l-.99-.11c-.13 1.156.27 2.182 1.13 3.047l.71-.707z" opacity=".5"/>
    <defs>
        <linearGradient id="paint0_linear" x1="541" x2="541" y1="-37" y2="118.143" gradientUnits="userSpaceOnUse">
            <stop/>
            <stop offset="1" stop-opacity="0"/>
        </linearGradient>
    </defs>
</svg>
