<svg xmlns="http://www.w3.org/2000/svg" width="23" height="22" fill="none" viewBox="0 0 23 22">
    <path fill="#19D3DA" d="M20.167 3.667H1.833C.807 3.667 0 4.474 0 5.5v11c0 1.027.807 1.834 1.833 1.834h18.334c1.026 0 1.833-.807 1.833-1.834v-11c0-1.026-.807-1.833-1.833-1.833zM7.92 11.66l-5.133 4.4c-.074.074-.147.074-.22.074-.074 0-.22-.074-.294-.147-.146-.147-.146-.367.074-.513l5.133-4.4c.147-.147.367-.147.513.073.147.147.074.367-.073.513zm2.86.074c-.513 0-1.1-.147-1.467-.44L2.347 6.527c-.147-.073-.22-.367-.074-.513.074-.147.294-.22.514-.074l6.966 4.767c.587.44 1.54.44 2.127 0l7.333-4.767c.147-.146.367-.073.514.074.146.146.073.366-.074.513l-7.333 4.767c-.44.293-.953.44-1.54.44zm8.947 4.253c-.074.073-.147.147-.294.147-.073 0-.146 0-.22-.074l-5.133-4.4c-.147-.146-.147-.366-.073-.513.073-.147.366-.147.513-.073l5.133 4.4c.147.146.22.366.074.513z"/>
</svg>
