<svg xmlns="http://www.w3.org/2000/svg" width="279" height="34" fill="none" viewBox="0 0 279 34">
    <path fill="#fff" d="M208.717 16.847l6.348-8.043h-2.174l-6.326 8.087 6.913 8.696h2.174l-6.935-8.74zm-6.239-8.043v16.76h1.674V8.805h-1.674zM101 8.804v2.565h12.565V8.804H101zm4.913 16.76h2.761V11.37l-2.761 1.609v12.587zM73.739 8.804v16.76h2.76V8.805h-2.76zM191.261 18.608c1.106-.222 2.1-.824 2.811-1.7.71-.878 1.092-1.975 1.08-3.104.002-.685-.138-1.363-.409-1.992-.272-.629-.669-1.195-1.169-1.664-.499-.469-1.089-.83-1.734-1.061-.645-.231-1.33-.328-2.014-.283h-6.217v16.761h1.674V10.348h4.5c.466-.038.936.022 1.378.175.443.152.849.395 1.193.713.344.317.619.703.806 1.132.188.429.285.892.285 1.36 0 .468-.097.931-.285 1.36-.187.43-.462.815-.806 1.132-.344.318-.75.56-1.193.713-.442.153-.912.213-1.378.175h-1.153l3.435 5.913 1.457 2.479h1.891l-4.152-6.892zM90.522 8.804h-6.174v16.761h2.739V11.413h3.304c.405-.035.813.015 1.198.146.385.13.739.34 1.038.615.3.275.54.61.703.982.164.372.248.774.248 1.18 0 .408-.084.81-.248 1.182-.164.372-.403.707-.703.982-.3.274-.653.484-1.038.615s-.793.18-1.198.146h-3.304l1.5 2.608h1.935c.755.048 1.513-.06 2.225-.317.713-.256 1.365-.656 1.917-1.174.552-.519.992-1.145 1.292-1.84.3-.695.456-1.444.456-2.201 0-.757-.155-1.506-.456-2.201-.3-.695-.74-1.321-1.292-1.84-.552-.518-1.204-.918-1.917-1.175-.712-.256-1.47-.364-2.225-.317zM152.022 8.804l-4.348 13.979-3.913-10.218-.87 2.174L147 25.61h1.456l5.305-16.761-1.739-.044zm-9.5.435h-.718l-5.043 13.5-4.348-13.978h-1.783l5.435 16.76h1.457l5.608-14.977-.608-1.305zM63.326 18.978c1.017-.357 1.894-1.027 2.507-1.913.613-.887.93-1.944.906-3.021.001-.725-.146-1.443-.433-2.109-.286-.665-.706-1.265-1.234-1.762-.528-.497-1.152-.881-1.833-1.128-.682-.246-1.407-.35-2.13-.306h-6.522v16.826h2.739V11.391h3.609c.383-.048.771-.015 1.14.098.369.113.71.304.999.559.29.255.521.569.68.92.159.352.241.733.241 1.12 0 .385-.082.766-.24 1.118-.16.351-.392.665-.681.92-.29.255-.63.446-.999.559-.369.113-.758.146-1.14.098H59l5.109 8.695h3.087l-3.87-6.5zM167.674 8.543c-1.152-.036-2.299.164-3.37.589-1.071.424-2.045 1.063-2.859 1.878-.815.815-1.454 1.788-1.879 2.86-.424 1.07-.624 2.217-.588 3.37 0 2.305.916 4.517 2.547 6.148 1.631 1.63 3.843 2.547 6.149 2.547s4.518-.916 6.149-2.547c1.63-1.63 2.547-3.843 2.547-6.149.033-1.15-.17-2.296-.595-3.366-.425-1.07-1.065-2.042-1.879-2.856-.814-.814-1.786-1.454-2.856-1.879-1.07-.425-2.215-.628-3.366-.595zm0 15.653c-.927.023-1.849-.141-2.71-.484-.861-.343-1.644-.858-2.3-1.512-.657-.655-1.174-1.436-1.519-2.296-.346-.86-.514-1.782-.493-2.708-.053-.954.089-1.908.417-2.805.329-.897.837-1.717 1.493-2.411.656-.694 1.447-1.246 2.324-1.624.877-.378 1.822-.573 2.777-.573.955 0 1.9.195 2.777.573.877.378 1.668.93 2.324 1.624.657.694 1.164 1.514 1.493 2.411.328.897.47 1.851.417 2.805.027.926-.136 1.849-.478 2.71-.342.862-.857 1.644-1.512 2.3-.656.655-1.438 1.17-2.3 1.512-.861.342-1.783.505-2.71.478zM20.065 15.696c-1.978-.479-3.717-.892-3.717-2.435 0-1.544 1.391-2.174 3.065-2.174s3.13.891 3.13 2.565h2.696c0-3.152-2.174-5.13-5.782-5.13-3.61 0-5.848 1.826-5.848 4.848 0 3.456 2.935 4.152 5.5 4.782 2.021.478 3.804.892 3.804 2.565 0 1.674-1.522 2.479-3.304 2.479-1.783 0-3.392-1.044-3.392-2.913h-2.89c0 3.413 2.564 5.521 6.304 5.521 3.39 0 6.108-1.782 6.108-5.13s-3-4.326-5.674-4.978zM45.326 19.37c-.328 1.117-1.014 2.097-1.953 2.788-.938.692-2.077 1.056-3.243 1.037-.782.013-1.559-.135-2.282-.434-.723-.3-1.377-.745-1.92-1.307-.545-.563-.968-1.23-1.243-1.963-.276-.733-.398-1.514-.36-2.296-.04-.783.079-1.567.353-2.302.274-.735.696-1.406 1.24-1.97.545-.566 1.2-1.012 1.925-1.313.724-.301 1.503-.45 2.287-.436 1.144-.048 2.272.276 3.216.923.944.646 1.654 1.58 2.023 2.664h2.783c-.4-1.813-1.42-3.428-2.885-4.568-1.465-1.139-3.282-1.73-5.137-1.672-1.145-.03-2.284.174-3.347.602-1.063.428-2.027 1.069-2.832 1.884-.805.815-1.434 1.787-1.848 2.855-.414 1.068-.605 2.21-.56 3.355-.045 1.145.146 2.287.56 3.355.414 1.068 1.043 2.04 1.848 2.855.805.815 1.769 1.456 2.832 1.884 1.063.427 2.202.632 3.347.602 1.903.049 3.76-.58 5.242-1.775 1.482-1.195 2.49-2.877 2.845-4.747l-2.891-.022z"/>
    <path fill="#262A2F" d="M263.527 8.41l-3.623 6.792h-1.087L257.911 11l-2.645 4.202h-1.105l-.905-6.793h1.322l.616 4.638 2.898-4.547h.435l1.069 4.637 2.59-4.728h1.341zM264.632 12.286v.18c-.02.238.015.476.101.697.086.221.222.42.397.58.175.162.384.28.612.348.228.067.468.082.702.043.408 0 .811-.093 1.176-.276.365-.182.682-.448.925-.775h1.468c-.341.672-.858 1.24-1.496 1.642-.638.402-1.374.623-2.127.64-.392.016-.782-.05-1.146-.193-.364-.144-.695-.36-.971-.638-.275-.278-.491-.61-.632-.975-.14-.365-.204-.755-.186-1.146-.006-1.065.4-2.091 1.132-2.864.732-.773 1.735-1.234 2.799-1.285.391-.018.781.046 1.146.188.365.142.695.36.97.638.276.279.489.612.627.979.138.366.197.757.173 1.148-.001.361-.049.72-.144 1.069h-5.526zm.272-1.123h4.293c.012-.237-.027-.473-.115-.692-.089-.22-.224-.417-.396-.58-.173-.161-.378-.284-.603-.358-.224-.075-.462-.1-.697-.073-.536.007-1.057.173-1.498.476-.442.303-.784.73-.984 1.227zM278.998 11.181c0 1.108-.438 2.172-1.219 2.96-.78.786-1.84 1.233-2.948 1.243-.442.018-.882-.067-1.284-.25-.403-.182-.757-.457-1.035-.8l-.362.887h-1.015L272.947 6h1.322l-.615 3.08c.676-.516 1.504-.796 2.355-.797.392-.029.785.026 1.155.16.369.135.706.346.988.62.283.273.504.603.649.968.146.365.213.757.197 1.15zm-1.377 0c.019-.243-.015-.487-.099-.715-.084-.229-.217-.436-.389-.608-.173-.172-.38-.305-.609-.39-.228-.084-.472-.118-.715-.099-.729.032-1.419.34-1.93.861-.511.522-.806 1.217-.823 1.947 0 .48.191.942.53 1.281.34.34.801.53 1.281.53.715-.03 1.392-.324 1.901-.827.509-.502.813-1.175.853-1.89v-.09zM260.538 17.557l-1.811 9.221h-.997v-.743c-.719.58-1.613.899-2.536.906-.393.018-.785-.046-1.151-.188-.366-.142-.699-.359-.977-.637-.278-.277-.495-.61-.637-.977-.142-.366-.206-.758-.188-1.15.01-1.101.452-2.154 1.232-2.93.78-.776 1.834-1.214 2.935-1.22.413-.015.825.06 1.207.219.382.16.724.4 1.003.706l.634-3.207h1.286zm-2.373 5.308c.016-.242-.02-.484-.105-.712-.086-.227-.219-.433-.39-.604-.172-.172-.378-.305-.605-.39-.227-.085-.47-.121-.712-.105-.721.031-1.404.335-1.911.849-.508.514-.802 1.2-.824 1.922 0 .48.191.942.531 1.281.339.34.8.53 1.281.53.723-.027 1.408-.328 1.916-.843.508-.515.801-1.205.819-1.928zM262.096 23.862v.18c-.02.237.015.476.101.697.086.221.222.42.397.58.175.162.384.28.612.348.227.067.468.082.702.042.408.002.811-.093 1.175-.275.365-.183.683-.448.926-.775h1.377c-.341.672-.858 1.24-1.496 1.642-.638.402-1.373.623-2.127.64-.393.018-.785-.046-1.151-.188-.367-.142-.699-.359-.977-.637-.278-.277-.495-.61-.637-.977-.142-.366-.206-.758-.188-1.15 0-1.091.43-2.139 1.196-2.915.766-.776 1.807-1.22 2.898-1.234.394-.018.786.046 1.153.19.367.142.7.361.977.642.276.28.491.615.63.984.138.368.198.762.175 1.155-.002.355-.051.708-.145 1.05h-5.598zm.272-1.123h4.221c.012-.237-.028-.473-.116-.692-.088-.22-.223-.417-.396-.58-.172-.161-.378-.284-.602-.358-.225-.075-.463-.1-.698-.073-.521.026-1.025.2-1.452.501-.426.302-.758.718-.957 1.201zM275.683 20.003l-4.167 6.775h-1.214l-1.521-6.775h1.34l1.069 5.09 3.098-5.09h1.395z"/>
    <path fill="#fff" d="M128.696 2.174h.695l-16 29.63h-.695l16-29.63zM13.435 1v.63H9.76c-.916-.047-1.817.25-2.525.833s-1.172 1.41-1.301 2.319l-1.826 9.26c-.15.664-.47 1.276-.927 1.78-.457.502-1.036.878-1.682 1.09.448.215.825.555 1.083.98.259.424.389.915.374 1.412 0 1.347-1.979 9.565-1.979 10.608-.014.343.046.684.175 1.002.13.317.325.603.575.838.25.235.546.414.87.524.325.11.67.15 1.01.114h3.675l-.13.61h-3.74c-.405.02-.81-.043-1.19-.186-.38-.144-.726-.364-1.016-.648-.29-.284-.519-.625-.67-1.002-.152-.377-.223-.78-.21-1.187 0-1.065 1.977-9.37 1.977-10.674.023-.29-.017-.584-.118-.858-.102-.274-.261-.523-.468-.73-.206-.206-.455-.365-.73-.467-.273-.1-.566-.141-.858-.118H0l.109-.61H.26c.746-.018 1.465-.285 2.044-.757.578-.472.983-1.123 1.152-1.85l1.847-9.218c.16-1.056.702-2.016 1.524-2.698C7.65 1.316 8.694.961 9.761 1h3.674zM244.239 16.609v.608h-.152c-.749.02-1.471.29-2.049.767-.579.476-.983 1.132-1.147 1.864l-1.978 9.413c-.155 1.063-.698 2.032-1.525 2.718-.827.687-1.879 1.043-2.953 1h-3.783v-.61h3.674c.93.088 1.858-.186 2.59-.765.733-.58 1.215-1.418 1.345-2.343l1.869-9.435c.132-.678.443-1.309.902-1.825.459-.517 1.049-.9 1.707-1.11-.448-.214-.825-.555-1.083-.98-.259-.424-.388-.914-.373-1.411 0-1.391 1.869-9.022 1.934-10.457.016-.338-.043-.675-.172-.988-.128-.313-.324-.594-.572-.824-.248-.23-.544-.402-.866-.506-.322-.104-.663-.136-.998-.095h-3.587l.108-.63h3.653c.405-.028.811.03 1.192.17.382.14.729.358 1.021.641.291.283.519.624.67 1.001.15.378.22.782.203 1.188 0 1.022-1.956 9.413-1.956 10.478 0 .577.229 1.13.637 1.537.407.408.96.637 1.537.637l.152-.043zM226.304 16.217c-2.174-.521-4.347-1-4.347-3.043 0-2.044 1.608-2.913 3.869-2.913s3.848 1.217 3.848 3.26h1.761c.009-.695-.132-1.384-.412-2.02-.281-.635-.695-1.204-1.215-1.666-.52-.462-1.132-.806-1.797-1.01-.664-.205-1.365-.263-2.054-.173-3.392 0-5.609 1.76-5.609 4.587 0 3.26 2.848 3.913 5.435 4.522 2.587.608 4.347 1 4.347 3.174s-1.76 3.239-4.087 3.239c-2.326 0-4.347-1.392-4.347-3.652h-1.718c0 3.217 2.457 5.282 6.087 5.282 3.305 0 5.783-1.826 5.783-4.891 0-3.435-2.913-4.109-5.544-4.696z"/>
</svg>
