<svg xmlns="http://www.w3.org/2000/svg" width="280" height="34" fill="none" viewBox="0 0 280 34">
    <g clip-path="url(#clip0)">
        <path fill="#262A2F" d="M264.027 8.41l-3.623 6.792h-1.087L258.411 11l-2.645 4.202h-1.105l-.905-6.793h1.322l.616 4.638 2.898-4.547h.435l1.069 4.637 2.59-4.728h1.341zM265.132 12.286v.18c-.02.237.015.475.101.697.086.221.222.42.397.58.175.161.384.28.612.348.228.067.468.082.702.042.408.002.811-.093 1.176-.275.365-.183.682-.448.925-.776h1.468c-.341.673-.858 1.24-1.496 1.643-.638.402-1.374.623-2.127.64-.392.015-.782-.05-1.146-.194-.364-.143-.695-.36-.971-.638-.275-.277-.491-.61-.632-.974-.14-.365-.204-.756-.186-1.147-.006-1.065.4-2.09 1.132-2.864.732-.773 1.735-1.233 2.799-1.284.391-.019.781.045 1.146.188.365.142.695.36.97.638.276.279.489.612.627.978.138.367.197.758.173 1.149-.001.36-.049.72-.144 1.069h-5.526zm.272-1.124h4.293c.012-.236-.027-.472-.115-.691-.089-.22-.224-.417-.396-.58-.173-.161-.378-.284-.603-.359-.224-.074-.462-.1-.697-.073-.536.008-1.057.174-1.498.477-.442.303-.784.73-.984 1.226zM279.498 11.181c0 1.108-.438 2.172-1.219 2.96-.78.786-1.84 1.233-2.948 1.243-.442.018-.882-.067-1.284-.25-.403-.182-.757-.457-1.035-.8l-.362.887h-1.015L273.447 6h1.322l-.615 3.08c.676-.516 1.504-.796 2.355-.797.392-.029.785.026 1.155.16.369.135.706.346.988.62.283.273.504.603.649.968.146.365.213.757.197 1.15zm-1.377 0c.019-.243-.015-.487-.099-.715-.084-.229-.217-.436-.389-.608-.173-.172-.38-.305-.609-.39-.228-.084-.472-.118-.715-.099-.729.032-1.419.34-1.93.861-.511.522-.806 1.217-.823 1.947 0 .48.191.942.53 1.281.34.34.801.53 1.281.53.715-.03 1.392-.324 1.901-.827.509-.502.813-1.175.853-1.89v-.09zM261.038 17.558l-1.811 9.22h-.997v-.742c-.719.579-1.613.898-2.536.905-.393.018-.785-.046-1.151-.188-.366-.142-.699-.358-.977-.636s-.495-.611-.637-.977c-.142-.367-.206-.759-.188-1.151.01-1.1.452-2.153 1.232-2.93.78-.776 1.834-1.214 2.935-1.219.413-.016.825.058 1.207.218.382.16.724.4 1.003.706l.634-3.206h1.286zm-2.373 5.307c.016-.242-.02-.484-.105-.711-.086-.227-.219-.434-.39-.605-.172-.172-.378-.305-.605-.39-.227-.085-.47-.121-.712-.105-.721.032-1.404.335-1.911.849-.508.514-.802 1.2-.824 1.923 0 .48.191.94.531 1.28.339.34.8.531 1.281.531.723-.027 1.408-.33 1.916-.844.508-.515.801-1.204.819-1.928zM262.596 23.862v.18c-.02.237.015.476.101.697.086.221.222.42.397.58.175.162.384.28.612.348.227.067.468.082.702.042.408.002.811-.093 1.175-.275.365-.183.683-.448.926-.775h1.377c-.341.672-.858 1.24-1.496 1.642-.638.402-1.373.623-2.127.64-.393.018-.785-.046-1.151-.188-.367-.142-.699-.359-.977-.637-.278-.277-.495-.61-.637-.977-.142-.366-.206-.758-.188-1.15 0-1.091.43-2.139 1.196-2.915.766-.776 1.807-1.22 2.898-1.234.394-.018.786.046 1.153.19.367.142.7.361.977.642.276.28.491.615.63.984.138.368.198.762.175 1.155-.002.355-.051.708-.145 1.05h-5.598zm.272-1.123h4.221c.012-.237-.028-.473-.116-.692-.088-.22-.223-.417-.396-.58-.172-.161-.378-.284-.602-.358-.225-.075-.463-.1-.698-.073-.521.026-1.025.2-1.452.501-.426.302-.758.718-.957 1.201zM276.183 20.003l-4.167 6.775h-1.214l-1.521-6.775h1.34l1.069 5.09 3.098-5.09h1.395zM20.565 15.695c-1.978-.478-3.717-.89-3.717-2.434s1.391-2.174 3.065-2.174 3.13.891 3.13 2.565h2.696c0-3.152-2.174-5.13-5.782-5.13-3.61 0-5.848 1.826-5.848 4.847 0 3.457 2.935 4.152 5.5 4.783 2.021.478 3.804.891 3.804 2.565s-1.522 2.478-3.304 2.478c-1.783 0-3.392-1.043-3.392-2.913h-2.89c0 3.413 2.564 5.522 6.304 5.522 3.39 0 6.108-1.782 6.108-5.13s-3-4.326-5.674-4.979zM45.826 19.37c-.328 1.118-1.014 2.098-1.953 2.789-.938.69-2.077 1.055-3.243 1.037-.782.012-1.559-.136-2.282-.435-.723-.3-1.377-.744-1.92-1.307-.545-.562-.968-1.23-1.243-1.963-.276-.733-.398-1.514-.36-2.296-.04-.783.079-1.567.353-2.302.274-.735.696-1.406 1.24-1.97.545-.565 1.2-1.012 1.925-1.313.724-.3 1.503-.45 2.287-.436 1.144-.047 2.272.276 3.216.923.944.646 1.654 1.58 2.023 2.664h2.783c-.4-1.813-1.42-3.428-2.885-4.567-1.465-1.14-3.282-1.731-5.137-1.672-1.145-.031-2.284.174-3.347.601-1.063.428-2.027 1.07-2.832 1.884-.805.816-1.434 1.787-1.848 2.855-.414 1.069-.605 2.21-.56 3.355-.045 1.145.146 2.287.56 3.355.414 1.068 1.043 2.04 1.848 2.855.805.815 1.769 1.457 2.832 1.884 1.063.428 2.202.633 3.347.602 1.903.049 3.76-.58 5.242-1.775 1.482-1.195 2.49-2.877 2.845-4.747l-2.891-.022zM63.826 18.979c1.017-.358 1.894-1.027 2.507-1.914.613-.886.93-1.944.906-3.021.001-.725-.146-1.443-.433-2.108-.286-.666-.706-1.266-1.234-1.763-.528-.497-1.151-.88-1.833-1.127-.682-.247-1.407-.351-2.13-.306h-6.522v16.826h2.739V11.392h3.609c.383-.049.771-.016 1.14.098.369.113.71.303.999.558.29.255.521.569.68.92.159.352.241.733.241 1.12 0 .385-.082.767-.24 1.118-.16.352-.392.665-.681.92-.29.255-.63.446-.999.56-.369.112-.758.146-1.14.097H59.5l5.109 8.696h3.087l-3.87-6.5zM74.239 8.804v16.76h2.76V8.805h-2.76zM91.022 8.804h-6.174v16.76h2.739V11.413h3.304c.405-.034.813.015 1.198.146s.739.34 1.038.616c.3.275.54.609.703.981.164.373.248.775.248 1.181 0 .407-.084.81-.248 1.182-.164.372-.403.706-.703.981-.3.275-.653.485-1.038.616-.385.13-.793.18-1.198.145h-3.304l1.5 2.61h1.935c.755.046 1.513-.062 2.225-.318.713-.257 1.365-.657 1.917-1.175s.992-1.144 1.292-1.84c.3-.694.456-1.443.456-2.2 0-.758-.155-1.507-.456-2.202-.3-.695-.74-1.32-1.292-1.84-.552-.518-1.204-.917-1.917-1.174-.712-.257-1.47-.365-2.225-.317zM101.5 8.804v2.565h12.565V8.804H101.5zm4.913 16.76h2.761V11.37l-2.761 1.609v12.587zM244.739 16.609v.608h-.152c-.749.02-1.471.29-2.049.767-.579.476-.983 1.132-1.147 1.864l-1.978 9.413c-.155 1.063-.698 2.032-1.525 2.718-.827.687-1.879 1.043-2.953 1h-3.783v-.61h3.674c.93.088 1.858-.186 2.59-.765.733-.58 1.215-1.418 1.345-2.343l1.869-9.435c.132-.678.443-1.309.902-1.825.459-.517 1.049-.9 1.707-1.11-.448-.214-.825-.555-1.083-.98-.259-.424-.388-.914-.373-1.411 0-1.391 1.869-9.022 1.934-10.457.016-.338-.043-.675-.172-.988-.128-.313-.324-.594-.572-.824-.248-.23-.544-.402-.866-.506-.322-.104-.663-.136-.998-.095h-3.587l.108-.63h3.653c.405-.028.811.03 1.192.17.382.14.729.358 1.021.641.291.283.519.624.67 1.001.15.378.22.782.203 1.188 0 1.022-1.956 9.413-1.956 10.478 0 .577.229 1.13.637 1.537.407.408.96.637 1.537.637l.152-.043zM13.935.999v.63H10.26c-.916-.047-1.817.25-2.525.834-.708.583-1.172 1.41-1.301 2.319l-1.826 9.26c-.15.663-.47 1.276-.927 1.779-.457.503-1.036.879-1.682 1.091.448.215.825.555 1.083.98.259.424.389.914.374 1.411 0 1.348-1.979 9.566-1.979 10.609-.014.342.046.684.175 1.001.13.318.325.604.575.839.25.235.546.413.87.524.325.11.67.149 1.01.114h3.675l-.13.609h-3.74c-.405.021-.81-.042-1.19-.185-.38-.144-.726-.365-1.016-.649-.29-.284-.519-.625-.67-1.001-.152-.377-.223-.781-.21-1.187 0-1.065 1.977-9.37 1.977-10.674.023-.291-.017-.584-.118-.858-.102-.274-.261-.523-.468-.73-.206-.206-.455-.366-.73-.467-.273-.101-.566-.142-.858-.119H.5l.109-.608H.76c.746-.02 1.465-.286 2.044-.759.578-.472.983-1.123 1.152-1.85l1.847-9.217c.16-1.056.702-2.016 1.524-2.698C8.15 1.316 9.194.96 10.261 1h3.674zM129.196 2.174h.695l-16 29.63h-.695l16-29.63zM152.522 8.804l-4.348 13.978-3.913-10.217-.87 2.174 4.109 10.87h1.456l5.305-16.761-1.739-.044zm-9.5.435h-.718l-5.043 13.5-4.348-13.978h-1.783l5.435 16.76h1.457l5.608-14.978-.608-1.304zM168.174 8.543c-1.152-.036-2.299.164-3.37.588-1.071.425-2.045 1.064-2.859 1.879-.815.814-1.454 1.787-1.879 2.859-.424 1.071-.624 2.218-.588 3.37 0 2.306.916 4.518 2.547 6.149 1.631 1.63 3.843 2.546 6.149 2.546s4.518-.916 6.149-2.546c1.63-1.631 2.547-3.843 2.547-6.15.033-1.15-.17-2.295-.595-3.365-.425-1.07-1.065-2.042-1.879-2.856-.814-.814-1.786-1.454-2.856-1.88-1.07-.424-2.215-.627-3.366-.594zm0 15.652c-.927.024-1.849-.14-2.71-.483-.861-.344-1.644-.858-2.3-1.512-.657-.655-1.174-1.436-1.519-2.296-.346-.86-.514-1.782-.493-2.709-.053-.953.089-1.908.417-2.804.329-.897.837-1.717 1.493-2.411.656-.694 1.447-1.247 2.324-1.624.877-.378 1.822-.573 2.777-.573.955 0 1.9.195 2.777.573.877.377 1.668.93 2.324 1.624.657.694 1.164 1.514 1.493 2.41.328.897.47 1.852.417 2.805.027.927-.136 1.85-.478 2.71-.342.862-.857 1.645-1.512 2.3-.656.656-1.438 1.17-2.3 1.513-.861.342-1.783.505-2.71.477zM191.761 18.608c1.106-.223 2.1-.824 2.811-1.701.71-.877 1.092-1.975 1.08-3.103.002-.685-.138-1.363-.409-1.992-.272-.63-.669-1.196-1.169-1.664-.499-.47-1.089-.83-1.734-1.062-.645-.23-1.33-.327-2.014-.282h-6.217v16.76h1.674V10.347h4.5c.466-.037.936.022 1.378.175.443.153.849.396 1.193.713.344.318.619.703.806 1.132.188.43.285.892.285 1.36 0 .469-.097.932-.285 1.36-.187.43-.462.815-.806 1.133-.344.317-.75.56-1.193.713-.442.153-.912.212-1.378.175h-1.153l3.435 5.913 1.457 2.478h1.891l-4.152-6.891zM209.217 16.847l6.348-8.043h-2.174l-6.326 8.087 6.913 8.695h2.174l-6.935-8.739zm-6.239-8.043v16.76h1.674V8.805h-1.674zM226.804 16.218c-2.174-.522-4.347-1-4.347-3.044 0-2.043 1.608-2.913 3.869-2.913s3.848 1.218 3.848 3.261h1.761c.009-.695-.132-1.384-.412-2.02-.281-.636-.695-1.204-1.215-1.666-.52-.462-1.132-.807-1.797-1.01-.664-.205-1.365-.264-2.054-.173-3.392 0-5.609 1.76-5.609 4.586 0 3.261 2.848 3.913 5.435 4.522 2.587.609 4.347 1 4.347 3.174s-1.76 3.24-4.087 3.24c-2.326 0-4.347-1.392-4.347-3.653h-1.718c0 3.218 2.457 5.283 6.087 5.283 3.305 0 5.783-1.826 5.783-4.892 0-3.434-2.913-4.108-5.544-4.695z"/>
    </g>
    <defs>
        <clipPath id="clip0">
            <path fill="#fff" d="M0 0H279V34H0z" transform="translate(.5)"/>
        </clipPath>
    </defs>
</svg>
