<svg xmlns="http://www.w3.org/2000/svg" width="23" height="23" fill="none" viewBox="0 0 23 23">
    <path fill="#19D3DA" d="M19.87 17.541l-.547 2.798c-.05.26-.153.507-.303.724-.151.218-.346.402-.572.54-.226.138-.478.227-.74.262-.264.036-.53.016-.786-.058-2.814-.873-5.385-2.393-7.505-4.437-1.979-1.873-3.52-4.157-4.515-6.69C3.797 7.94 3.355 4.977 3.61 2.035c.027-.263.108-.517.239-.746.13-.23.308-.429.52-.586.212-.157.455-.268.713-.327.257-.058.525-.062.784-.012l2.804.547c.454.084.862.33 1.149.693.286.362.43.816.406 1.276-.056.919-.008 1.84.143 2.748.06.359.017.727-.125 1.061-.143.334-.379.62-.68.825l-1.417.953c.874 2.595 2.434 4.906 4.515 6.69l1.418-.953c.303-.201.657-.311 1.021-.318.364-.006.722.092 1.032.283.786.481 1.625.872 2.499 1.165.441.153.811.462 1.04.869.228.407.298.883.197 1.338z"/>
</svg>
